<svg width="192" height="182" xmlns="http://www.w3.org/2000/svg" xmlns:xlink="http://www.w3.org/1999/xlink"><svg width="23.23" height="44.01" viewBox="-1 -1 23.23 44.01" x="138" y="44.06" xmlns="http://www.w3.org/2000/svg"><path fill="#FFF" d="M21.23.31V7H17.4a3.55 3.55 0 00-2.85.91 4.26 4.26 0 00-.74 2.72v4.77H21l-1 7.47h-6.19V42H6.27V22.85H0v-7.47h6.27V9.85q0-4.69 2.55-7.28A9 9 0 0115.63 0a39.57 39.57 0 015.6.31z"/></svg><svg width="44.01" height="44.01" viewBox="-1 -1 44.01 44.01" x="138" y="88.07" xmlns="http://www.w3.org/2000/svg"><path fill="#FFF" d="M37.25 35.49V17.77h-3.69a11.77 11.77 0 01.57 3.58 12.12 12.12 0 01-1.75 6.36 12.76 12.76 0 01-4.76 4.59 13.13 13.13 0 01-6.56 1.7 12.78 12.78 0 01-9.19-3.71 12 12 0 01-3.83-9 11.77 11.77 0 01.49-3.56H4.68v17.76a1.63 1.63 0 001.6 1.67h29.3a1.63 1.63 0 001.17-.47 1.59 1.59 0 00.5-1.2zm-7.77-14.57A7.75 7.75 0 0027 15.14a8.28 8.28 0 00-6-2.4 8.25 8.25 0 00-5.91 2.39 7.75 7.75 0 00-2.47 5.78 7.75 7.75 0 002.47 5.79A8.25 8.25 0 0021 29.1a8.28 8.28 0 006-2.4 7.75 7.75 0 002.48-5.78zm7.76-9.84V6.56a1.84 1.84 0 00-.54-1.31 1.8 1.8 0 00-1.31-.56h-4.78a1.8 1.8 0 00-1.31.56 1.84 1.84 0 00-.54 1.31v4.52A1.87 1.87 0 0030.6 13h4.8a1.87 1.87 0 001.85-1.89zM42 5.39v31.23A5.41 5.41 0 0136.62 42H5.39a5.19 5.19 0 01-3.8-1.59A5.19 5.19 0 010 36.62V5.39a5.19 5.19 0 011.59-3.8A5.19 5.19 0 015.39 0h31.23a5.19 5.19 0 013.8 1.59A5.19 5.19 0 0142 5.39z"/></svg><svg height="138" viewBox="-2 -1 138 138.22" width="138" xmlns="http://www.w3.org/2000/svg"><path d="M93.148 80.832c16.352-23.09 10.883-55.062-12.207-71.41S25.88-1.461 9.531 21.632C-6.816 44.723-1.352 76.693 21.742 93.04a51.226 51.226 0 0055.653 2.3l37.77 37.544c4.077 4.293 10.862 4.465 15.155.387 4.293-4.075 4.465-10.86.39-15.153a9.21 9.21 0 00-.39-.39zm-41.84 3.5c-18.245.004-33.038-14.777-33.05-33.023-.004-18.246 14.777-33.04 33.027-33.047 18.223-.008 33.008 14.75 33.043 32.972.031 18.25-14.742 33.067-32.996 33.098h-.023zm0 0"/></svg><svg width="53.78" height="44.06" viewBox="-1 -1 53.78 44.06" x="138" xmlns="http://www.w3.org/2000/svg"><path fill="#FFF" d="M51.78 5a22.23 22.23 0 01-5.32 5.52v1.38a30.15 30.15 0 01-1.25 8.53 30.81 30.81 0 01-3.76 8.13 32.1 32.1 0 01-6.06 6.92 27 27 0 01-8.48 4.8 31 31 0 01-10.62 1.8A29.47 29.47 0 010 37.29a22.71 22.71 0 002.56.13 20.78 20.78 0 0013.17-4.53 10.63 10.63 0 01-9.92-7.36 13.45 13.45 0 002 .16 11 11 0 002.79-.36 10.44 10.44 0 01-6.09-3.67 10.25 10.25 0 01-2.41-6.75v-.13a10.52 10.52 0 004.8 1.34 10.6 10.6 0 01-3.45-3.78 10.34 10.34 0 01-1.28-5.07 10.4 10.4 0 011.45-5.33 30.08 30.08 0 009.71 7.83A29.57 29.57 0 0025.53 13a11.79 11.79 0 01-.26-2.43 10.23 10.23 0 013-7.48 10.64 10.64 0 0115 0l.21.22A20.81 20.81 0 0050.33.8a10.3 10.3 0 01-4.67 5.85A21.14 21.14 0 0051.78 5z"/></svg><svg width="36.75" height="44" viewBox="-1 -1 36.75 44" y="138" xmlns="http://www.w3.org/2000/svg"><path fill="#FFF" d="M22.13 29.15v5q0 1.57-.91 1.57a1.5 1.5 0 01-1.06-.52v-7.11a1.5 1.5 0 011.06-.54q.91 0 .91 1.6zm7.92 0v1.08h-2.1v-1.06q0-1.59 1.06-1.59t1 1.59zM7.42 24h2.5v-2.14h-7.3v2.2h2.46V37.4h2.34V24zm6.75 13.4h2.09V25.82h-2.09v8.86a1.86 1.86 0 01-1.31 1 .48.48 0 01-.49-.47 6.52 6.52 0 010-.82v-8.57h-2.14V35a5.79 5.79 0 00.19 1.71 1.26 1.26 0 001.36.87 3.43 3.43 0 002.39-1.43v1.25zm10.05-3.47v-4.6A8.33 8.33 0 0024 27a1.63 1.63 0 00-1.67-1.31A2.82 2.82 0 0020.16 27v-5.1h-2.08v15.5h2.09v-1.13a2.91 2.91 0 002.18 1.31A1.62 1.62 0 0024 36.27a8.61 8.61 0 00.22-2.35zm7.92-.24v-.3H30a11.6 11.6 0 010 1.43.9.9 0 01-.94.85q-1.08 0-1.08-1.61V32h4.19v-2.41a4.65 4.65 0 00-.66-2.72 3.2 3.2 0 00-5 0 4.52 4.52 0 00-.66 2.72v4.05a4.4 4.4 0 00.66 2.72 3 3 0 002.49 1.2 2.9 2.9 0 003-2.51 10.31 10.31 0 00.09-1.36zM17.89 12.3V7.38q0-1.61-1-1.61t-1 1.61v4.92q0 1.64 1 1.64t1-1.64zm16.85 17.6a40.6 40.6 0 01-.61 8.2 4.45 4.45 0 01-1.36 2.32 4.1 4.1 0 01-2.39 1.08 125.31 125.31 0 01-13 .49 125.31 125.31 0 01-13-.49A4.15 4.15 0 012 40.42 4.28 4.28 0 01.63 38.1 39.76 39.76 0 010 29.9a40.6 40.6 0 01.61-8.2A4.45 4.45 0 012 19.37a4.25 4.25 0 012.41-1.1q4.29-.47 13-.47t13 .47a4.4 4.4 0 013.75 3.42 39.76 39.76 0 01.58 8.21zM11.35 0h2.39l-2.83 9.35v6.35H8.57V9.35a39.68 39.68 0 00-1.43-5Q6.27 2 5.61 0H8.1l1.67 6.16zM20 7.8v4.1a4.59 4.59 0 01-.66 2.76 2.88 2.88 0 01-2.49 1.19 2.9 2.9 0 01-2.46-1.19 4.68 4.68 0 01-.66-2.76V7.8a4.59 4.59 0 01.66-2.74 2.9 2.9 0 012.46-1.19 2.88 2.88 0 012.49 1.19A4.59 4.59 0 0120 7.8zM27.87 4v11.7h-2.13v-1.27a3.37 3.37 0 01-2.41 1.45A1.31 1.31 0 0122 15a6 6 0 01-.19-1.76V4h2.13v8.6a6.14 6.14 0 000 .82.49.49 0 00.47.52 1.87 1.87 0 001.31-1V4h2.16z"/></svg></svg>